<?xml version="1.0" encoding="iso-8859-1"?>
<!-- Generator: Adobe Illustrator 19.0.0, SVG Export Plug-In . SVG Version: 6.00 Build 0)  -->
<svg version="1.1" id="Capa_1" xmlns="http://www.w3.org/2000/svg" xmlns:xlink="http://www.w3.org/1999/xlink" x="0px" y="0px"
	 viewBox="0 0 512 512" style="enable-background:new 0 0 512 512;" xml:space="preserve">
<g>
	<g>
		<g>
			<rect x="462.214" y="63.787" transform="matrix(0.7071 0.7071 -0.7071 0.7071 187.9821 -311.2574)" width="15" height="15"/>
			<rect x="444.534" y="81.469" transform="matrix(0.7071 0.7071 -0.7071 0.7071 195.3083 -293.5782)" width="15" height="15"/>
			
				<rect x="396.089" y="86.408" transform="matrix(0.7071 0.7071 -0.7071 0.7071 215.3808 -245.1303)" width="15" height="102.029"/>
			<rect x="26" y="470.75" width="15" height="15"/>
			<path d="M444.786,0L149.221,295.565l-17.156-17.156l17.863-32.303l-36.702-36.701L77.444,293.55l51.256,51.256l-97.715,99.817
				C13.664,446.035,0,460.572,0,478.25C0,496.86,15.14,512,33.75,512c17.678,0,32.215-13.664,33.627-30.984l99.817-97.715
				l51.256,51.256l84.145-35.783l-36.701-36.702l-32.303,17.863l-17.156-17.156L512,67.214V0H444.786z M450.999,15h35.394
				L193.631,307.763h-32.213l-1.591-1.591L450.999,15z M33.75,497C23.411,497,15,488.589,15,478.25s8.411-18.75,18.75-18.75
				c4.926,0,9.401,1.924,12.75,5.042l0.958,0.958c3.117,3.35,5.042,7.824,5.042,12.75C52.5,488.589,44.089,497,33.75,497z
				 M65.265,462.093l-15.358-15.358l12.831-13.107l15.634,15.634L65.265,462.093z M89.091,438.769L73.232,422.91l7.609-7.772
				l16.022,16.022L89.091,438.769z M107.582,420.666l-16.248-16.248l7.609-7.773l16.412,16.412L107.582,420.666z M126.075,402.565
				l-16.639-16.639l7.609-7.772l16.802,16.802L126.075,402.565z M144.566,384.462l-17.027-17.027l11.768-12.021l17.28,17.28
				L144.566,384.462z M230.969,398.526l32.302-17.863l13.004,13.003l-54.377,23.125l-58.041-58.041l18.197-18.197l-10.606-10.606
				l-18.197,18.197L95.21,290.103l23.125-54.377l13.003,13.003l-17.863,32.303l41.731,41.731h34.032v34.032L230.969,398.526z
				 M497,61.001L205.828,352.173l-1.591-1.591v-32.213L497,25.607V61.001z"/>
			<rect x="226.763" y="241.292" transform="matrix(0.7071 0.7071 -0.7071 0.7071 244.5363 -92.7795)" width="15" height="15"/>
			<rect x="209.097" y="258.965" transform="matrix(0.7071 0.7071 -0.7071 0.7071 251.8587 -75.1115)" width="15" height="15"/>
			<rect x="191.414" y="276.635" transform="matrix(0.7071 0.7071 -0.7071 0.7071 259.175 -57.432)" width="15" height="15"/>
			<rect x="338.293" y="318.587" transform="matrix(-0.7071 -0.7071 0.7071 -0.7071 359.7277 801.1773)" width="15" height="15"/>
			
				<rect x="343.919" y="365.366" transform="matrix(0.7071 0.7071 -0.7071 0.7071 378.6383 -168.3814)" width="97.309" height="15"/>
			<rect x="320.613" y="300.91" transform="matrix(-0.7071 -0.7071 0.7071 -0.7071 342.0454 758.4992)" width="15" height="15"/>
			<path d="M321.446,275.445l147.501,147.501v46.001h-46.001l-15.072-15.072l12.43-12.43l-10.607-10.606l-12.429,12.429
				L285.022,331.024l22.614-22.614l-10.607-10.606l-33.22,33.22L444.786,512H512v-67.214L332.054,264.839L321.446,275.445z
				 M483.947,437.946L497,450.999V497h-46.001l-13.053-13.053h46.001V437.946z"/>
			<rect x="33.292" y="30.101" transform="matrix(0.7071 0.7071 -0.7071 0.7071 38.5352 -17.8311)" width="15" height="15"/>
			
				<rect x="108.556" y="48.929" transform="matrix(-0.7071 0.7071 -0.7071 -0.7071 277.9259 110.6064)" width="15" height="127.869"/>
			<rect x="50.969" y="47.784" transform="matrix(-0.7071 0.7071 -0.7071 -0.7071 138.9044 53.0324)" width="15" height="15"/>
			
				<rect x="24.021" y="114.207" transform="matrix(-0.7071 -0.7071 0.7071 -0.7071 60.9481 268.6595)" width="124.189" height="15"/>
			<rect x="138.328" y="96.357" transform="matrix(-0.7071 0.7071 -0.7071 -0.7071 322.3825 74.1782)" width="15" height="15"/>
			<rect x="156.005" y="114.027" transform="matrix(-0.7071 0.7071 -0.7071 -0.7071 365.0535 91.8432)" width="15" height="15"/>
			<rect x="120.647" y="78.683" transform="matrix(0.7071 0.7071 -0.7071 0.7071 98.4738 -65.3713)" width="15" height="15"/>
			<polygon points="138.614,205.828 179.947,247.161 190.554,236.555 184.265,230.266 185.855,228.675 205.934,228.675 
				205.934,213.675 179.643,213.675 173.658,219.659 159.827,205.828 161.418,204.237 204.237,204.237 204.237,161.418 
				205.828,159.827 219.659,173.658 213.675,179.643 213.675,205.934 228.675,205.934 228.675,185.855 230.266,184.265 
				236.555,190.554 247.161,179.947 205.828,138.614 189.237,155.205 189.237,189.237 155.205,189.237 			"/>
		</g>
	</g>
</g>
<g>
</g>
<g>
</g>
<g>
</g>
<g>
</g>
<g>
</g>
<g>
</g>
<g>
</g>
<g>
</g>
<g>
</g>
<g>
</g>
<g>
</g>
<g>
</g>
<g>
</g>
<g>
</g>
<g>
</g>
</svg>
